<svg width="30" height="30" viewBox="0 0 30 30" fill="none" xmlns="http://www.w3.org/2000/svg">
<path fill-rule="evenodd" clip-rule="evenodd" d="M15 27.5C21.9036 27.5 27.5 21.9036 27.5 15C27.5 8.09644 21.9036 2.5 15 2.5C8.09644 2.5 2.5 8.09644 2.5 15C2.5 21.9036 8.09644 27.5 15 27.5Z" fill="white"/>
<path fill-rule="evenodd" clip-rule="evenodd" d="M13.75 21.8229C13.75 22.6144 14.8169 22.8662 15.1708 22.1584L19.4573 13.5854C19.7066 13.0867 19.344 12.5 18.7865 12.5H15V8.17705C15 7.38563 13.9331 7.13377 13.5792 7.84164L9.2927 16.4146C9.04337 16.9133 9.40599 17.5 9.96353 17.5H13.75V21.8229Z" fill="#FC9571"/>
</svg>
