<?xml version="1.0" encoding="utf-8"?>
<!-- Generator: Adobe Illustrator 24.3.0, SVG Export Plug-In . SVG Version: 6.00 Build 0)  -->
<svg version="1.1" id="Capa_1" xmlns="http://www.w3.org/2000/svg" xmlns:xlink="http://www.w3.org/1999/xlink" x="0px" y="0px"
	 viewBox="0 0 512 512" style="enable-background:new 0 0 512 512;" xml:space="preserve">
<style type="text/css">
	.st0{fill:#FFFFFF;}
</style>
<g>
	<g>
		<path class="st0" d="M257,0C116.4,0,0,114.4,0,255s116.4,257,257,257s255-116.4,255-257S397.6,0,257,0z M413.2,180L246.4,347.9
			c-11.8,11.8-32.7,11.7-44.4,0l-95.4-95.5c-11.7-11.7-11.7-30.7,0-42.4c11.1-11.1,31.3-11.1,42.4,0l76.2,74.2l145.6-146.7
			c11.1-11.1,31.3-11.2,42.4,0C424.7,149.1,425.1,168.1,413.2,180z"/>
	</g>
</g>
</svg>
