<svg width="130" height="130" viewBox="0 0 130 130" fill="none" xmlns="http://www.w3.org/2000/svg">
<g filter="url(#filter0_d)">
<rect x="30" y="20" width="70" height="70" rx="35" fill="white"/>
</g>
<path fill-rule="evenodd" clip-rule="evenodd" d="M72.799 51.8787L65.7279 44.8076C64.9469 44.0266 63.6806 44.0266 62.8995 44.8076L55.8284 51.8787C54.2663 53.4408 54.2663 55.9734 55.8284 57.5355L60.0711 61.7782C61.6332 63.3403 64.1658 63.3403 65.7279 61.7782L72.799 54.7071C73.5801 53.9261 73.5801 52.6597 72.799 51.8787ZM57.2427 53.2929L64.3137 46.2218L71.3848 53.2929L69.649 55.0286C69.649 55.0286 56.674 55.0286 56.674 55.0122C56.6684 54.9516 56.6641 54.8894 56.6603 54.8254C56.6279 54.2749 56.822 53.7135 57.2427 53.2929Z" fill="#FA709A"/>
<path fill-rule="evenodd" clip-rule="evenodd" d="M73.6066 65C75.2635 65 76.6066 63.6569 76.6066 62C76.6066 60.3431 73.6066 57 73.6066 57C73.6066 57 70.6066 60.3431 70.6066 62C70.6066 63.6569 71.9498 65 73.6066 65Z" fill="#FA709A"/>
<defs>
<filter id="filter0_d" x="0" y="0" width="130" height="130" filterUnits="userSpaceOnUse" color-interpolation-filters="sRGB">
<feFlood flood-opacity="0" result="BackgroundImageFix"/>
<feColorMatrix in="SourceAlpha" type="matrix" values="0 0 0 0 0 0 0 0 0 0 0 0 0 0 0 0 0 0 127 0"/>
<feOffset dy="10"/>
<feGaussianBlur stdDeviation="15"/>
<feColorMatrix type="matrix" values="0 0 0 0 0 0 0 0 0 0 0 0 0 0 0 0 0 0 0.1 0"/>
<feBlend mode="normal" in2="BackgroundImageFix" result="effect1_dropShadow"/>
<feBlend mode="normal" in="SourceGraphic" in2="effect1_dropShadow" result="shape"/>
</filter>
</defs>
</svg>
