<svg width="130" height="130" viewBox="0 0 130 130" fill="none" xmlns="http://www.w3.org/2000/svg">
<g filter="url(#filter0_d)">
<rect x="30" y="20" width="70" height="70" rx="35" fill="white"/>
</g>
<path fill-rule="evenodd" clip-rule="evenodd" d="M56.0469 56.6974L57.9531 57.3026C59.312 53.0223 61.6231 51 65 51C68.3769 51 70.688 53.0223 72.0469 57.3026L73.9531 56.6974C72.349 51.6444 69.3268 49 65 49C60.6732 49 57.651 51.6444 56.0469 56.6974ZM65 49C64.4477 49 64 49.4477 64 50C64 50.5523 64.4477 51 65 51C65.5523 51 66 50.5523 66 50C66 49.4477 65.5523 49 65 49Z" fill="#FA709A"/>
<path fill-rule="evenodd" clip-rule="evenodd" d="M65 53C66.3062 53 67.4175 52.1652 67.8293 51H71.2676C71.6134 51.5978 72.2597 52 73 52C74.1046 52 75 51.1046 75 50C75 48.8954 74.1046 48 73 48C72.2597 48 71.6134 48.4022 71.2676 49H67.8293C67.4175 47.8348 66.3062 47 65 47C63.6938 47 62.5825 47.8348 62.1707 49H58.7324C58.3866 48.4022 57.7403 48 57 48C55.8954 48 55 48.8954 55 50C55 51.1046 55.8954 52 57 52C57.7403 52 58.3866 51.5978 58.7324 51H62.1707C62.5825 52.1652 63.6938 53 65 53ZM66 50C66 50.5523 65.5523 51 65 51C64.4477 51 64 50.5523 64 50C64 49.4477 64.4477 49 65 49C65.5523 49 66 49.4477 66 50ZM57 62C58.6569 62 60 60.6569 60 59C60 57.3431 58.6569 56 57 56C55.3431 56 54 57.3431 54 59C54 60.6569 55.3431 62 57 62ZM58 59C58 59.5523 57.5523 60 57 60C56.4477 60 56 59.5523 56 59C56 58.4477 56.4477 58 57 58C57.5523 58 58 58.4477 58 59ZM73 62C74.6569 62 76 60.6569 76 59C76 57.3431 74.6569 56 73 56C71.3431 56 70 57.3431 70 59C70 60.6569 71.3431 62 73 62ZM74 59C74 59.5523 73.5523 60 73 60C72.4477 60 72 59.5523 72 59C72 58.4477 72.4477 58 73 58C73.5523 58 74 58.4477 74 59Z" fill="#FA709A"/>
<defs>
<filter id="filter0_d" x="0" y="0" width="130" height="130" filterUnits="userSpaceOnUse" color-interpolation-filters="sRGB">
<feFlood flood-opacity="0" result="BackgroundImageFix"/>
<feColorMatrix in="SourceAlpha" type="matrix" values="0 0 0 0 0 0 0 0 0 0 0 0 0 0 0 0 0 0 127 0"/>
<feOffset dy="10"/>
<feGaussianBlur stdDeviation="15"/>
<feColorMatrix type="matrix" values="0 0 0 0 0 0 0 0 0 0 0 0 0 0 0 0 0 0 0.1 0"/>
<feBlend mode="normal" in2="BackgroundImageFix" result="effect1_dropShadow"/>
<feBlend mode="normal" in="SourceGraphic" in2="effect1_dropShadow" result="shape"/>
</filter>
</defs>
</svg>
