<svg width="130" height="130" viewBox="0 0 130 130" fill="none" xmlns="http://www.w3.org/2000/svg">
<g filter="url(#filter0_d)">
<rect x="30" y="20" width="70" height="70" rx="35" fill="white"/>
</g>
<path fill-rule="evenodd" clip-rule="evenodd" d="M59.6854 50.2718C60.0875 50.6503 60.1067 51.2832 59.7282 51.6854L56.3732 55.25L59.7282 58.8146C60.1067 59.2168 60.0875 59.8497 59.6854 60.2282C59.2832 60.6067 58.6503 60.5875 58.2718 60.1854L54.2718 55.9354C53.9094 55.5503 53.9094 54.9497 54.2718 54.5646L58.2718 50.3146C58.6503 49.9125 59.2832 49.8933 59.6854 50.2718ZM70.3146 50.2718C69.9125 50.6503 69.8933 51.2832 70.2718 51.6854L73.6268 55.25L70.2718 58.8146C69.8933 59.2168 69.9125 59.8497 70.3146 60.2282C70.7168 60.6067 71.3497 60.5875 71.7282 60.1854L75.7282 55.9354C76.0906 55.5503 76.0906 54.9497 75.7282 54.5646L71.7282 50.3146C71.3497 49.9125 70.7168 49.8933 70.3146 50.2718Z" fill="#FA709A"/>
<rect x="66.1046" y="47.0138" width="2" height="16" rx="1" transform="rotate(15 66.1046 47.0138)" fill="#FA709A"/>
<defs>
<filter id="filter0_d" x="0" y="0" width="130" height="130" filterUnits="userSpaceOnUse" color-interpolation-filters="sRGB">
<feFlood flood-opacity="0" result="BackgroundImageFix"/>
<feColorMatrix in="SourceAlpha" type="matrix" values="0 0 0 0 0 0 0 0 0 0 0 0 0 0 0 0 0 0 127 0"/>
<feOffset dy="10"/>
<feGaussianBlur stdDeviation="15"/>
<feColorMatrix type="matrix" values="0 0 0 0 0 0 0 0 0 0 0 0 0 0 0 0 0 0 0.1 0"/>
<feBlend mode="normal" in2="BackgroundImageFix" result="effect1_dropShadow"/>
<feBlend mode="normal" in="SourceGraphic" in2="effect1_dropShadow" result="shape"/>
</filter>
</defs>
</svg>
