<svg width="24" height="24" viewBox="0 0 24 24" fill="none" xmlns="http://www.w3.org/2000/svg">
<path fill-rule="evenodd" clip-rule="evenodd" d="M22 12C22 17.5228 17.5228 22 12 22C6.47715 22 2 17.5228 2 12C2 6.47715 6.47715 2 12 2C17.5228 2 22 6.47715 22 12ZM18.1823 7.76894C17.7786 7.39211 17.1458 7.41393 16.7689 7.81768L10.423 14.6169L7.65079 12.2407C7.23147 11.8813 6.60017 11.9299 6.24074 12.3492C5.88132 12.7685 5.92988 13.3998 6.34921 13.7593L9.84921 16.7593C10.256 17.108 10.8654 17.074 11.2311 16.6823L18.2311 9.18232C18.6079 8.77857 18.5861 8.14578 18.1823 7.76894Z" fill="#FA709A"/>
</svg>
